<svg width="18" height="18" viewBox="0 0 18 18" fill="none" xmlns="http://www.w3.org/2000/svg">
<path d="M9.00008 0.833328L16.5417 5.33333C16.7917 5.48611 16.9862 5.69444 17.1251 5.95833C17.264 6.22222 17.3334 6.49999 17.3334 6.79166V15.8333C17.3334 16.2917 17.1704 16.6842 16.8442 17.0108C16.5176 17.3369 16.1251 17.5 15.6667 17.5H2.33341C1.87508 17.5 1.48286 17.3369 1.15675 17.0108C0.830081 16.6842 0.666748 16.2917 0.666748 15.8333V6.79166C0.666748 6.49999 0.736192 6.22222 0.875081 5.95833C1.01397 5.69444 1.20841 5.48611 1.45841 5.33333L9.00008 0.833328ZM9.00008 10.5417L15.5001 6.66666L9.00008 2.79166L2.50008 6.66666L9.00008 10.5417ZM9.00008 12.5L2.33341 8.49999V15.8333H15.6667V8.49999L9.00008 12.5Z" fill="#8F34D6"/>
</svg>
